<svg xmlns="http://www.w3.org/2000/svg" width="512" height="512" viewBox="0 0 572.221 572.221"><g xmlns="http://www.w3.org/2000/svg" fill="#fb0"><path d="M286.11 572.221c157.761 0 286.111-128.35 286.111-286.111S443.871 0 286.11 0 0 128.349 0 286.11s128.349 286.111 286.11 286.111zm0-526.321c132.453 0 240.21 107.758 240.21 240.21 0 132.453-107.758 240.21-240.21 240.21S45.9 418.562 45.9 286.11 153.658 45.9 286.11 45.9z" data-original="#000000"/><path d="M241.302 392.291v-27.846c0-5.07 3.788-10.777 8.562-12.488 31.61-11.324 143.229-43.311 207.372 42.023 3.049 4.053 5.322 3.379 5.117-1.686-4.67-115.892-96.984-230.626-211.877-236.312-5.064-.251-9.177-4.336-9.177-9.407v-30.909c0-5.071-2.907-6.273-6.49-2.69L100.3 247.49a9.179 9.179 0 000 12.983l134.509 134.509c3.586 3.582 6.493 2.379 6.493-2.691z" data-original="#000000"/></g></svg>